# xmcd CD database file
#
# Track frame offsets:
#	187
#	19820
#	40585
#	54692
#	70327
#	99305
#	116112
#	140412
#	157712
#
# Disc length: 2429 seconds
#
# Revision: 3
# Processed by: cddbd v1.5.1PL0 Copyright (c) Steve Scherf et al.
# Submitted via: CDex 1.51
#
DISCID=70097b09
DTITLE=Michael Lee Firkins - Michael Lee Firkins
DYEAR=1990
DGENRE=Instrumental
TTITLE0=Laughing Stacks
TTITLE1=24 Grand Avenue
TTITLE2=Runaway Train
TTITLE3=Cactus Cruz
TTITLE4=Deja Blues
TTITLE5=Space Crickets
TTITLE6=Rain In The Tunnel
TTITLE7=Hula Hoops
TTITLE8=The Sargasso Sea
EXTD=YEAR: 1990
EXTT0=
EXTT1=
EXTT2=
EXTT3=
EXTT4=
EXTT5=
EXTT6=
EXTT7=
EXTT8=
PLAYORDER=
